<svg xmlns="http://www.w3.org/2000/svg" id="Layer_1" version="1.1" viewBox="0 0 634.1 191.1"><defs><style>.st0{fill:#fff;fill-rule:evenodd}</style></defs><path d="M393.4 149.4c-36.8 27.2-90.3 41.6-136.3 41.6s-122.5-23.8-166.4-63.5c-3.4-3.1-.4-7.4 3.8-5 47.4 27.6 106 44.2 166.5 44.2s85.7-8.5 127-26c6.2-2.6 11.5 4.1 5.4 8.6Z" class="st0"/><path d="M408.7 131.9c-4.7-6-31.1-2.9-43-1.4-3.6.4-4.2-2.7-.9-5 21.1-14.8 55.6-10.5 59.7-5.6 4 5-1.1 39.6-20.8 56.2-3 2.5-5.9 1.2-4.6-2.2 4.4-11.1 14.4-36 9.7-42Zm-42.2-111V6.5c0-2.2 1.7-3.6 3.7-3.6h64.5c2.1 0 3.7 1.5 3.7 3.6v12.3c0 2.1-1.8 4.8-4.9 9.1l-33.4 47.7c12.4-.3 25.5 1.6 36.8 7.9 2.5 1.4 3.2 3.5 3.4 5.6v15.4c0 2.1-2.3 4.6-4.8 3.3-19.9-10.4-46.2-11.5-68.2.1-2.2 1.2-4.6-1.2-4.6-3.3V90c0-2.3 0-6.3 2.4-9.9l38.7-55.5h-33.7c-2.1 0-3.7-1.5-3.7-3.6Zm127.6.6c-14.5 0-15.4 19.7-15.4 32s-.2 38.6 15.2 38.6 15.9-21.2 15.9-34.1-.4-18.7-2.9-26.7c-2.2-7-6.6-9.7-12.8-9.7ZM494 1c29.1 0 44.9 25 44.9 56.8s-17.4 55.1-44.9 55.1-44.2-25-44.2-56.2S465.6 1 494 1ZM334.9 110.5c-1.3 1.2-3.7 1.2-4.6.5-6.7-5.2-11.2-13.1-11.2-13.1-10.8 11-18.4 14.3-32.4 14.3s-29.4-10.2-29.4-30.6 8.6-26.8 20.9-32.1c10.6-4.7 25.5-5.5 36.9-6.8 0 0 1-12.3-2.4-16.8-2.6-3.5-7-5.1-11-5.1-7.3 0-14.3 3.9-15.7 11.5-.4 2.2-2 4-3.7 3.8l-18.8-2c-1.4-.2-3.4-1.7-2.9-4.1C265 6.9 285.8 0 304.5 0s22 2.5 29.6 9.8c9.5 8.9 8.6 20.8 8.6 33.8v30.6c0 9.2 3.8 13.2 7.4 18.2 1.3 1.8 1.5 3.9 0 5.2-4 3.4-15.1 13-15.1 13Zm-19.8-47.8c0 7.7.2 14-3.7 20.8-3.1 5.5-8.1 8.9-13.6 8.9s-11.9-5.7-11.9-14.2c0-16.7 15-19.8 29.2-19.8v4.2ZM77.6 110.5c-1.3 1.2-3.7 1.2-4.6.5-6.7-5.2-11.2-13.1-11.2-13.1-10.8 11-18.4 14.3-32.4 14.3S0 102 0 81.6s8.6-26.8 20.9-32.1c10.6-4.7 25.5-5.5 36.9-6.8 0 0 1-12.3-2.4-16.8-2.6-3.5-7-5.1-11-5.1-7.3 0-14.3 3.9-15.7 11.5-.4 2.2-2 4-3.7 3.8l-18.8-2c-1.4-.2-3.4-1.7-2.9-4.1C7.7 7 28.5 0 47.2 0s22 2.5 29.6 9.8c9.5 8.9 8.6 20.8 8.6 33.8v30.6c0 9.2 3.8 13.2 7.4 18.2 1.3 1.8 1.5 3.9 0 5.2-4 3.4-15.1 13-15.1 13ZM57.8 62.7c0 7.7.2 14-3.7 20.8C51 89 46 92.4 40.5 92.4s-11.9-5.7-11.9-14.2c0-16.7 15-19.8 29.2-19.8v4.2Zm77.2-8.9c0-11.7-.6-27.8 13.6-27.8s12.1 16.5 12.1 27.8v53.4c0 1.9 1.6 3.5 3.5 3.6h19.6c2.1 0 3.8-1.6 3.8-3.6V53.8c0-5.7-.2-14.2 1.8-19.3 2-5.1 7-8.3 11.7-8.3s10.1 1.9 11.5 8.7c.9 4 .6 14.6.6 18.9v53.4c0 1.9 1.6 3.5 3.5 3.6h19.6c2.1 0 3.8-1.6 3.8-3.6V43.6c0-10.8 1.3-23.1-4.9-31.6-5.5-7.6-14.5-11-22.7-11s-22.4 5.9-27.1 18.7C179.9 7 172.2 1 159.9 1s-21.1 5.9-25.8 18.7h-.4V6.8c0-2-1.6-3.7-3.7-3.7h-18.3c-2 0-3.7 1.6-3.7 3.7v100.3c0 2 1.6 3.7 3.7 3.7h19.6c2 0 3.7-1.6 3.7-3.7V53.7Zm445.4 53.3c0 2-1.6 3.7-3.7 3.7h-19.6c-2 0-3.7-1.6-3.7-3.7V6.8c0-2 1.6-3.7 3.7-3.7h18.1c2.1 0 3.7 1.7 3.7 2.9v15.4h.4C584.8 7.6 592.5 1.1 606 1.1s17.4 3.2 22.9 11.9c5.1 8.1 5.1 21.6 5.1 31.4v63.4c-.2 1.8-1.8 3.2-3.8 3.2h-19.7c-1.8-.1-3.3-1.5-3.5-3.2V46.9c0-20.4-7.8-21-12.3-21s-9.5 4.1-11.3 7.9c-2.7 6.1-3.2 12.4-3.2 19.2v54.2Z" class="st0"/></svg>