<svg xmlns="http://www.w3.org/2000/svg" viewBox="0 0 720 720"><path d="M204.6 645.3h-16.1l-13-18.5h-14v18.5h-15.3v-66h32.6c12.6 1 23.9 8.1 24.7 21.6.7 10.6-3.8 18.7-13.4 23.2l14.6 21.2Zm-43.1-30.6h14.7c13.6 0 16.6-18.8 3.9-22.4-.8-.2-3-.8-3.6-.8h-15v23.2ZM36.7 645.3l29.2-66h15.2l29.8 66H94.7L88.9 631H58.4l-6.3 14.3H36.7Zm26.5-25.7h20.9l-10.5-25.3-10.3 25.3Zm513.5 25.7h-10.4L552.2 625h-20.6v20.3h-9.3v-66h29.6c11.3.7 21.8 6.9 23.5 18.9s-1.2 16.9-8.4 21.9c-1.8 1.3-3.8 2-5.7 3.1l15.5 22.1Zm-45.2-57.9v29.5c.2.3.5.3.8.4 4 .5 11.8.2 16 0 7.4-.4 15.5-2.7 17.4-10.9s-4.2-18.2-14.8-19c-6.3-.5-13 .3-19.4 0Zm-238.1-8.1v12.3h-21l-.3.3v53.4H257v-53.4l-.4-.3h-20.9v-12.3h57.7zm335.2 0v36.6c.4 0 .5-.1.7-.4 11.7-12 23.4-24.2 35.1-36.2h10.8l-28 29.7 29.9 36.3H666l-25.2-29.4-12.2 12.4v17h-9.3v-66h9.3Zm-287.2 66h-9.3v-66h29.6c14.8 1.1 24.9 9.8 23.8 25.4s-12 19.8-24.2 20.5c-6 .3-13.3-.7-19 0s-.6 0-.8.4v19.8Zm0-57.9v29.3l.8.4c10.5-.7 29.7 3.5 33.3-10.3s-.2-14-6.7-17.3c-1.5-.8-5.7-2.1-7.4-2.1h-20.1Zm142.3 57.9h-9.6l-7.7-16.6h-34.3l-.8.3-7.3 16.3h-9.6l30.2-66c2.7.3 5.9-.3 8.6 0s.6 0 .8.4l29.7 65.6Zm-20.4-24.1L449 589l-14.3 32.2h28.5ZM419 238.3l-.2 68.9-63.4 37.6c-1.7.4-6.7-2.8-8.6-3.9-34-18.4-67.3-38.4-101.1-57.3 0-2.4 1.1-5 1.1-7.4s-2-7.8-.4-9.6l109.8-62.5 5.2 2.1 57.5 32.1Zm-78.2-43.5-102.5 58.5c-6.4-5.5-13.6-9.7-22.2-9.8 5.7-27.3 20.5-52.4 40.9-71.3 10.2 14.2 27.7 19.6 43.6 11.1 3-1.6 5.2-4 8-5.9l32.2 17.4Zm-2.3 159.9-30 17.3c-1.3.2-5-3.6-6.7-4.7-15.6-9.6-35.9-3.5-45.4 11.7-19.7-19.3-34.9-44-40.3-71.3 5.9 0 12.3-2.5 17-5.9 1.9-1.3 3.3-4.4 5.6-3.7l99.8 56.6Zm59.2 56.2c-7.1 2-14.1 3.9-21.4 5-21.1 3.2-43.7 2-63.9-4.8 4.3-7.9 5.6-16 3.6-24.8l39-22.9 40.2 22.5c.8 1.2-.8 4.9-.9 6.7-.5 6.7.6 12.2 3.5 18.2Zm-.6-270.6c-2.7 7.8-4.2 15.6-2 23.8l-38 21.7-41.2-22.4c2.9-8 .7-16.2-2.3-23.7 7.4-1.7 14.8-3.7 22.4-4.6 20.7-2.3 41-.4 61.1 5.1Zm56.3 237c-3.7-6.9-10.8-11.4-18-13.7v-47.4c.1 0 36.3-21.7 36.3-21.7 5 4.8 10.1 7.6 17 9 2.9.6 5.2-1.2 4.7 3.2s-3.9 14.1-5.8 19.1c-7.3 19.2-19.1 37.4-34.1 51.4Zm38.8-137.9c-8.4.7-14.7 4.7-21.1 9.8l-35.2-19.3-.5-44.3c7.2-1.8 13.4-6.3 17.6-12.2 1.8-.4 15.9 17.7 17.8 20.4 9.7 13.8 16.9 29.3 21.3 45.6Zm-66.1 187.8c-4.6 7.7-12.7 14.1-21.1 17.5-5.1 2.1-10.6 2.6-15.6 4.7-8.5 3.4-17.2 11.1-23.3 17.8-4.3 4.7-5.4 10.6-13.6 8.4-3.4-.9-7.3-7.7-9.8-10.5-11.4-12.4-18.8-14.4-34.1-19.2-10.5-3.3-18.7-9.9-25.1-18.7 4.4.2 9 0 13.1-2.2 3.5 3.4 7.5 6.7 12.1 8.6s7.8 2.1 11.7 3.4c14.5 4.7 25.2 13.9 34.8 25.5 7.3-8.4 15.9-17.2 26-22.1 10.9-5.3 24.1-5.4 32.7-15.5 4 1.2 8 2.7 12.4 2.2Zm-233.2-58c10 1.2 20.3 4.5 29 9.6 11.6 6.6 17.4 18 30.6 21.9l4.8 12.6c-9.1-1.1-18.1-4.6-25.2-10.4-12.6-10.5-15.2-15.5-32.7-20.1-4.2-1.1-14.7-2.1-17.2-4.2-6.1-5.1.8-15.5 2.5-21.9 4.6-17.7 1.3-21.5-1.4-37.7-1.5-8.8-.5-18 3-26.2.6 2.4 8.4 8.5 8.7 9.2s-1 7.9-.8 10.2c.4 7.2 4.1 14.5 4.6 22 .9 11.9-2.3 23.9-5.8 35.1Zm260.5 43.5c2.4-3.8 4.1-8.1 4.8-12.6 10.3-3.1 16-12.3 24-18s22.5-11 34.4-12.9c-4.5-11.6-6.8-24.3-5.8-36.8.5-6.1 3.5-11.9 4-18s-.2-10.9-1.6-16.1l8.3-9c4.6 8.1 5.8 18.2 4.9 27.4-.6 5.6-3.5 11.3-4 16.9-.7 8 .4 16.3 2.6 24 1.2 4.2 5.4 12.4 4.9 15.9-1.1 7.6-12.1 6.6-18.1 8s-15.2 4.8-21.3 8.9c-7.3 4.8-11.9 12-19.6 16.4s-11.5 5.3-17.6 5.9Zm-28.5-290.4c-4.3.2-8.5 1.2-12.4 2.8-8-9.8-20.7-9.5-31.2-14.6s-18.9-13.4-26.4-21.8c-1.4-.2-4.9 5-6 6.1-6.2 6.3-14.3 12.8-22.4 16.4s-15 3.7-22.2 8c-1.7 1-6.5 5.1-7.4 5.4-1.9.4-10.5-3.3-13.5-2.2 4.9-7 12.2-12.9 20.2-16.1 15.4-6.3 22.4-5.4 35.5-18.4 2.9-2.8 9-11.9 12.2-12.8s3.9-.5 5.4-.1c2.6.6 12 12.7 15.2 15.5 11.8 10.5 17.7 10.1 31.2 15.2s16.3 9.6 21.9 16.7ZM523 257.4c.3-3.6-7.6-9.8-8-11.4s.6-5.8.4-7.9c-.4-5.8-2.9-11.3-3.8-17-2.1-13.6 1.2-26.6 5.1-39.5-11.7-1.4-23.6-5.6-33.3-12.3s-14-15.2-24.7-18c-.7-4.9-2.4-9.5-4.7-13.8 8.2 1.1 16.9 4.9 23.2 10.1 12.1 10.1 14.2 15.2 31.1 20 5.4 1.5 11.7 1.8 16.5 3.2s4.9 3.8 5.2 6.5-3.8 11.8-4.9 15.9-2.3 8.7-2.6 12.5c-1.4 17.2 7.3 27.9 3.1 46-.1.6-1.6 6.6-2.5 5.9ZM257.3 139.1l-4.8 12c-11.8 2.7-17.9 13.3-27.2 19.5-6.4 4.2-14.5 7.4-21.9 9.5-1.7.5-10.4 2-10.6 2.8 4.1 10.8 6.7 23.2 5.8 34.8-.8 10.7-7.2 20.7-3.6 31.8l-9.2 9.6c-2-6.6-3.8-13.6-3.5-20.6s3.9-14.7 4.6-22.1c1.1-12.2-3-24.7-7.4-35.9-.4-9.8 9.2-8.3 16.1-9.9 8.7-2 17.7-5.1 25-10.4 4.3-3.1 7.4-7.3 11.4-10.7 6.9-5.7 16.2-9.9 25.2-10.4ZM419.1 364c-6.6.4-11.1 4.6-15.8 8.6l-32.9-18.2 48.7-28.7V364Zm0-143.7-45.8-25.8 30-17c4.8 4.3 9.9 7.1 15.8 9.5v33.3Zm-207.8 37.8c25.8-3.8 28.1 34.1 3.9 35.2-22.1 1-24.6-32.2-3.9-35.2Zm280.8-4.1c23.9-3.1 27.4 32.6 5 35.1-23.8 2.7-27.2-32.3-5-35.1Zm-210-116.5c26-3.5 27.4 35 3.3 35.2-21.9.2-23.8-32.5-3.3-35.2Zm142.1 0c26-3.5 27 34.8 3.3 35.2-22.1.4-23.9-32.4-3.3-35.2Zm-141.5 240c24.4-3.3 27.2 34.2 3.3 35.2-22.1 1-25.1-32.3-3.3-35.2Zm141.5 0c21.7-3.1 28.7 27.3 8.6 34.1s-32.2-30.6-8.6-34.1Zm10.6-129.4 28.4 15.1c-2.2 5.7-1.1 12.1-.3 18L434.8 298v-49.8Z" style="fill:#fff"/></svg>