<svg xmlns="http://www.w3.org/2000/svg" id="Layer_1" version="1.1" viewBox="0 0 720 720"><defs><style>.st0{fill:#fff}</style></defs><path d="M169.9 231.8c115.3-10.5 196.3 108 140.5 210.3-53.9 98.8-199.1 96.8-251.3-2.8-46-87.7 11.8-198.6 110.9-207.6h-.1Zm82 68.2c-.5-.3-1.2-3.1-3.1-4.5-17.7-12.8-35.8-.8-35.2 19.9L99.7 455.9l8.3-4.7c17.7-14.6 37.6-46.9 59-54.1 27.6-9.3 54.4 7.9 75.6-19.6 17.7-23 4.4-42.2 9.5-63.5 1.4-5.9 7.3-9.2 9.1-13 1.9-4.1-6.8.6-9.4-.9Zm10.8 102.2h-71.8l.2 8.7 1.9 2.3h69.7v-11Zm191.9-170.8v123.9h-18l-.7-9.7c-10.5 19-37 14.7-45.6-4.1-6.7-14.7-7.1-50.8-1.1-65.8s32.7-22.8 46-5.8v-38.6h19.4Zm-23.9 107c7.5-8.3 7.2-40.3 4.2-50.9-5-17.8-24.7-18.4-28.3 0-2.1 10.8-3.8 48.4 8 53.4 4.4 1.8 12.8 1.2 16.1-2.5Zm18.4 117.5 28.3-37.2h21.4l-27.4 37.6 30.1 57.4h-20.7L458 472.4c-14.3 9.9-6.9 25.4-9.6 40-1.4 2-18.7 2.7-19.9-1V390.6l1.1-1.7c1.8-1.3 17.4-1.7 19.4 1.5v65.4h.1Zm227.7-114.2c.6.5.2 9.3-.6 11-3.7 7.6-26.1 3.6-25.6-6.9-8.5 10.6-21.3 15.2-34.5 10.3-15.7-5.8-17.6-31.4-9.4-43.9 9-13.7 37.6-11.9 41.6-20.5 10.2-22-27.7-28.3-25.3-1.1h-17.9c-2.7-25.7 16.6-33.9 39.3-31.6 38.6 3.9 19.4 52.5 24.2 77.8 1.2 6.4 7.3 4.1 8.2 4.9Zm-27.5-34.5c-12.2 5.9-28.4 5.2-27.7 22.7.5 13 12.9 17.6 22.1 9.5s5.6-8.2 5.6-9.5v-22.7Zm-105 34.5v12.1c-10.6 5.2-21.9 3.1-26.9-8-22.1 27.5-57.9 5.6-45.3-28.7 6.9-18.9 27.5-14.1 40.3-21.7 8.3-4.9 7.6-24.6-10.3-22.7-14.1 1.5-8.5 15.1-11.6 17.3l-18 .6c-.8-24.5 13.7-33.1 36.7-31.7 14.5.9 25.3 5.8 26.8 21.4 1.8 17.8-1.3 38.3 0 56.4.7 4.5 4.3 5 8.2 4.9Zm-26.2-34.5c-7.4 3.2-21.8 5.1-26 11.9-7.3 11.9-.4 28.1 15.1 23.3 15.5-4.8 11.5-25.7 11-35.2Zm40 111.5c4.1.8 17.7-2.1 19.1 2.3l-.4 91.5-16.5 1.1-3.6-9.4c-5.3 13.2-31.3 15.3-40.1 4.8-1.6-1.9-5.5-10.5-5.5-12.4v-77.8c4.1.8 17.7-2.1 19.1 2.3 1.9 21.3-1.8 45 0 66s6.4 15.7 17.8 12.1 9.9-8.2 9.9-12.2v-68.2h.1Zm22.1-157h15.2v13l-15.2.8v61.3c0 4.1 12.2 3.7 15.2 3.4 1.4 14.2-.2 16.7-14.5 16.7s-17.9-2.9-19.7-13.5c-3.3-19.5 1.9-45.3-.5-65.6l-2.1-2.1-11.6-1v-13h13.8v-27.5c6.1.9 14.5-2.2 19.3 2.1v25.5ZM409 513.8h-19.3v-93c4.2-3.4 15.3-3.3 19.3 0v93Zm0-126.8-.6 19.4c-1.9 2.8-14.8.6-18.7 1.3V387H409Z" class="st0"/><path d="M233.3 301.9c10.2-2.8 9.5 16.2-.6 11.2s-4-9.9.6-11.2Z" class="st0"/></svg>