<svg xmlns="http://www.w3.org/2000/svg" viewBox="0 0 512.3 167.3"><path d="M65.8 129.8C30 129.8 0 100.7 0 64.9S30 0 65.8 0s33.8 7.8 44.4 17.9L97.7 30.4c-7.6-7.1-17.9-12.7-31.9-12.7-26.1 0-46.5 21-46.5 47.2s20.4 47.2 46.5 47.2 26.6-6.8 32.7-13c5.1-5.1 8.4-12.3 9.6-22.3H65.2V59.1h60.1c.6 3.2.9 7 .9 11.1 0 13.3-3.6 29.8-15.3 41.5-11.4 11.9-25.9 18.2-45.2 18.2ZM216.4 88c0 24.1-18.8 41.8-41.9 41.8s-41.9-17.7-41.9-41.8 18.8-41.8 41.9-41.8c23.1 0 41.9 17.6 41.9 41.8ZM198 88c0-15-10.9-25.3-23.5-25.3S151 73 151 88s10.9 25.3 23.5 25.3S198 102.9 198 88Zm109.5 0c0 24.1-18.8 41.8-41.9 41.8s-41.9-17.7-41.9-41.8 18.8-41.8 41.9-41.8c23.1 0 41.9 17.6 41.9 41.8Zm-18.4 0c0-15-10.9-25.3-23.5-25.3S242.1 73 242.1 88s10.9 25.3 23.5 25.3 23.5-10.4 23.5-25.3Zm105.5-39.3v75c0 30.9-18.2 43.5-39.7 43.5s-32.4-13.6-37-24.7l16-6.6c2.8 6.8 9.8 14.9 21 14.9s22.3-8.5 22.3-24.5v-6h-.6c-4.1 5.1-12 9.5-22 9.5-20.9 0-40-18.2-40-41.6s19.1-41.9 40-41.9 17.9 4.4 22 9.3h.6v-6.8h17.4Zm-16.1 39.5c0-14.7-9.8-25.5-22.3-25.5S333 73.5 333 88.2s10.6 25.2 23.2 25.2c12.5 0 22.3-10.6 22.3-25.2Zm47.7-83.8v122.8h-18.3V4.4h18.3Zm71.1 97.4 14.2 9.5c-4.6 6.8-15.7 18.5-34.8 18.5s-41.4-18.4-41.4-41.8 17.9-41.8 39.4-41.8 32.3 17.3 35.7 26.6l1.9 4.7-55.8 23.1c4.3 8.4 10.9 12.7 20.2 12.7s15.8-4.6 20.6-11.6Zm-43.8-15.1 37.3-15.5c-2.1-5.2-8.2-8.9-15.5-8.9-9.3 0-22.3 8.2-21.8 24.4Z" style="fill:#fff"/></svg>