<svg xmlns="http://www.w3.org/2000/svg" id="Layer_1" version="1.1" viewBox="0 0 610.6 79.6"><defs><style>.st2{fill:#00a078}.st3{fill:#81a0a7}.st4{fill:#5698c2}.st5{fill:#31849b}.st8{fill:#f9b700}.st9{fill:#f5b6a7}</style></defs><path d="M2.5 2.2h43.2v75H2.5z" style="fill:#6fbea4"/><path d="m187 2.2-.3 75h-42.9v-75H187z" style="fill:#d3c8b8"/><path d="M50 2.2h42.9v75H50z" class="st8"/><path d="M579.8 76.9h-43.2V51.4l-26.5-49h42.7l27 49.5v25z" class="st4"/><path d="M299 77.2h-27.8l-46.5-44.7V2.2h18.4L299 61.9v15.3z" class="st9"/><path d="M378.5 2.2c0 .3.3.6.3.7V38l-.4.4h-74.6l-.4-.4V2.2h75.2Z" class="st2"/><path d="M505.5 2.4v35.4c-.3 0-.6.3-.7.3H431l-.4-.4V2.4h74.9Z" class="st3"/><path d="M96.3 77.5V2.2c10.7-.6 21.3 1.5 29.6 8.6 17.8 15.1 17.9 42.5.2 57.7-8.3 7.1-19 9.4-29.7 9Z" class="st8"/><path d="M426 2.2v35.9l-42.9.3V2.2H426z" class="st5"/><path d="M319.3 42.4h42.9v34.8h-42.9z" class="st2"/><path d="M383.1 42.4H426v34.8h-42.9z" class="st5"/><path d="M446.9 42.4h42.6v34.5h-42.6z" class="st3"/><path d="M299 2.2v51.9c-10.6-10.8-20.6-22.1-30.9-33.2V2.2H299Z" class="st9"/><path d="m607.6 2.4-25.3 43.1L559 2.4h48.6z" class="st4"/><path d="M263.6 77.2h-38.9V40.4l38.9 36.8z" style="fill:#f5b6a8"/><path d="m211.5 58.1-20.6-18.4 20.6-18.4v36.8zm8.9-5.5v24.6H191l29.4-24.6zm0-50.4v24.5L191 2.2h29.4z" style="fill:#d3c8b9"/></svg>