<svg xmlns="http://www.w3.org/2000/svg" data-name="Layer 1" viewBox="0 0 620.06 243.35"><text style="fill:#fff;font-family:Blaster,Blaster;font-size:122.64px" transform="translate(.42 125.75)"><tspan x="0" y="0">IsmailMK</tspan></text><path d="M284 156.59c-21.92 37.94-57.62 67.29-99.43 80.17-5.6 1.77-11.32 3.23-17.1 4.28-13.34 2.61-27.89 4.12-40.64-1.75-16.12-7.49-22.51-23.69-14.59-39.89 6.98-14.62 22.42-22.42 36.8-28.07 51.18-20.59 107.05-23.85 161.59-25.41 39.07-1.12 78.28-.94 117.34.42 62.58 2.17 125.06 7.62 187.24 15.84 6.91 1.02 6.47 11.7-1.48 11.17-92.2-16.05-185.97-24.03-279.61-24.09-62.02.29-125.94.72-184.49 23.56-15.84 6.04-33.14 15.18-38.23 32.53-4.33 14.12 2.94 26.82 15.93 32.89 10.58 4.98 22.84 4.58 34.21 2.88 34.54-5.37 66.93-23.47 89.73-49.87 10.04-11.69 18.24-24.89 23.8-38.99 2.88-6.45 12.22-1.99 8.93 4.34Z" style="fill:#fff"/></svg>