<svg xmlns="http://www.w3.org/2000/svg" id="Layer_1" version="1.1" viewBox="0 0 611.9 174"><defs><style>.st0{fill:#fff}</style></defs><path d="M611.9 156.6c0 9.6-7.8 17.4-17.3 17.4H457.3c-9.6 0-17.3-7.8-17.3-17.4V17.4C440 7.8 447.8 0 457.3 0h137.3c9.6 0 17.3 7.8 17.3 17.4v139.2ZM0 35.1h23.1v83.1h40.8v19.5H0V35.1Zm96 7.4c0 6.4-4.7 11.6-12.5 11.6s-12-5.2-12-11.6 4.9-11.6 12.3-11.6c7.5 0 12 5 12.2 11.6Zm-23.9 95.2V63.2h23.1v74.4H72.1Zm37-50.7c0-9.3-.3-17-.6-23.7h20.1l1.1 10.3h.5c3-4.9 10.5-12 23-12s26.6 10.2 26.6 32.1v44h-23.1V96.5c0-9.6-3.3-16.1-11.7-16.1s-10.2 4.4-11.9 8.7c-.6 1.5-.8 3.7-.8 5.8v42.9h-23.1V87.1Zm107.6 7.6h.3c1.7-3.2 3.5-6.2 5.3-9l15.1-22.4h27.8l-26.6 30.1 30.4 44.3h-28.5L222.4 107l-5.8 7.3v23.3h-23.1v-108h23.1v65Z" class="st0"/><path d="M287 107.8c.6 9.6 10.2 14.2 21 14.2s14.3-1.1 20.5-3.2l3 15.7c-7.6 3.2-16.9 4.7-26.9 4.7-25.3 0-39.7-14.6-39.7-37.9s11.7-39.7 37.6-39.7 33.2 18.7 33.2 37.1-.5 7.5-.8 9.1H287ZM314.2 92c0-5.6-2.4-15.1-13.1-15.1s-13.7 9-14.3 15.1h27.4ZM417 29.6v85.8c0 8.4.3 17.2.6 22.2h-20.5l-.9-10.8h-.5c-4.6 8.2-13.7 12.5-23.3 12.5-17.7 0-31.8-15.1-31.8-38.2-.2-25.1 15.5-39.7 33.3-39.7s16.3 3.3 19.6 8.4h.3V29.6h23.1Zm-23.2 65.1c0-1.2 0-2.9-.3-4.3-1.4-6.1-6.4-11.3-13.5-11.3-10.7 0-16 9.4-16 21.2s6.2 20.5 15.8 20.5 12.2-4.6 13.5-11.1c.3-1.7.5-3.5.5-5.3v-9.7Z" class="st0"/><path d="M495.9 42.5c0 6.4-4.7 11.6-12.5 11.6s-12-5.2-12-11.6 4.9-11.6 12.3-11.6c7.5 0 12 5 12.2 11.6ZM472 137.7V63.2h23.1v74.4H472ZM508.9 87c0-9.3-.3-17-.6-23.7h20.1l1.1 10.3h.5c3-4.9 10.5-12 23-12s26.6 10.2 26.6 32.1v44h-23.1V96.5c0-9.6-3.3-16.1-11.7-16.1s-10.2 4.4-11.9 8.7c-.6 1.5-.8 3.7-.8 5.8v42.9H509V87.1Z"/></svg>