<svg xmlns="http://www.w3.org/2000/svg" id="Layer_1" version="1.1" viewBox="0 0 720 720"><defs><style>.st0{fill:#fff}</style></defs><path d="M359.6 375.9H258.4c2.4 15.6 12.8 27.3 28.3 30.7 14.8 3.3 34.5.4 42.9-13.6h25.1c-8.5 21.3-29.9 34.4-52.6 35.6-40.9 2.1-69.8-25.8-67.3-67 3.9-63.1 95.2-75.9 119.6-20.5 4.9 11.1 5.7 22.7 5.3 34.7Zm-24-20.2c-4.6-22.6-27.8-32.2-49.1-27.4s-24.6 13.4-27.3 27.4h76.4Zm277.9 33.7h16.9v19.9h-16.9v27.6h-22.7v-27.6h-58.1c-15.4-.9-28-11.8-26.5-28s4.2-11.4 8.1-16.7c16.8-22.9 34.7-45.3 52.3-67.6 17.7-15.3 45.4-3.9 46.9 19.6v72.8Zm-22.7 0V316c0-.8-1.5-2.6-2.2-3-2.5-1.6-5.7-1.3-7.6.9l-50.9 67.2c-1.4 2.6-.6 5.7 1.8 7.3s2.2 1.1 2.6 1.1h56.3Zm-162.9-82.9c43.1-2.8 74.8 28.4 68.1 72-10 64.7-107.3 67.7-122.7 5.4-9.4-38.2 14.7-74.8 54.6-77.4Zm1.5 20.8c-44 3.6-47.7 68.9-6.8 79.2 25.4 6.4 49.5-8.6 51.3-35.3 1.8-27.3-17.2-46.1-44.5-43.9Zm-206.9 98.3h-22.4v-63.3c-.7-10.3-3.7-20.9-11.8-27.7-12.4-10.4-36.3-10-48 1.4-14.7 14.3-8.9 38.5-10.1 56.8-2-.5-3.7-1.4-5.7-1.8-6-1.4-11.3-.5-17 1.8.5-22.2-3.2-46.2 10.5-65.4 13.5-19 39-24 61-20 26.9 4.8 41.9 24.8 43.5 51.5v66.7Z" class="st0"/><path d="m85.4 386.9 20.4 13.8c.8.2 4.7-2.2 6.1-2.6 17.3-5.3 31.6 13.5 22 28.7-5.1 8-15.1 10.8-23.7 7.2s-3.4-2.3-4.6-1.8l-20.2 13.7c5 18.4-16.8 32.4-31.3 19.7s0-40.4 20.1-32.1c1.1.5 3.8 2.4 4.7 2.1l20-13.8c.7-1-.2-3.1-.3-4.3 0-2.2.4-4.2.6-6.4l-20.5-14c-.6-.1-4 2-5.1 2.4-18.7 6.8-34.1-15.4-21.3-30.5 13.2-15.7 38.6-1.8 33.2 17.9ZM669.3 310v120c-.7 9.2-2.5 18.6-8.3 26-8.6 10.9-23.4 12.4-36.5 12.1v-19.6h6.9c.5 0 2.9-.6 3.5-.8 9.7-2.5 11.4-11 12-19.9V310h22.4ZM657 262.6c25.9-1.7 27.1 38.3 1.4 38.5-24.5.2-26.2-36.9-1.4-38.5Z" class="st0"/></svg>