<svg xmlns="http://www.w3.org/2000/svg" id="Layer_1" version="1.1" viewBox="0 0 720 385.6"><defs><style>.st0{fill:#fff}</style></defs><path d="m144.6 282.5.7-.5-30.2-30.3c25.6-25.6 51-51.8 76.9-77.2.3-.1.3-.7.4-.8.4-.4 1-.8 1.4-1.3 7.9-9.7 11-22.1 8.7-34.5 6.6 23.4 12.2 47.1 18.3 70.7 4.3 25.7-13.5 38.2-29.5 54.1-3.1 3.1-5.9 6.5-9.2 9.5-10.6 9.6-23.4 13.2-37.5 10.4Zm316-87.7 30.2-35c10.5-8.9 24.9 4.3 16.6 15.5s-12.4 13-17.9 19.4c-.3.3-1.4 1.7-1.4 1.9l26.6 38.2c6.7 12.1-7.7 24.2-18.5 15.9-9.2-11.4-16.7-24.3-25.1-36.3l-2.3-2.9-8.1 8.2c-.5 7.1.5 14.9 0 22-1.2 14.8-22.4 15.9-25.3 1.5-.5-41.1-.5-82.3 0-123.4 1.9-9.3 13.2-13.5 20.7-7.3s4.7 5.6 4.7 8.3v73.9ZM297.7 155h4.1c23.1.6 41.3 13.7 45.4 36.9 6.4 36.2-16.9 65.2-54.5 61.4-59.8-6-53.3-97.9 5-98.3Zm-1.3 18.9c-19.4 2-21.6 30.5-16.8 44.9 6.5 19.7 31.3 22.6 39.4 2.5 7-17.5 2.6-49.9-22.5-47.4Zm249 36.7c-.2 8.2 2.6 15.4 9.8 19.6 8.1 4.8 18.8 5.4 27.9 4.2s8.6-2.7 12.6-1.6c7.1 2.1 8.9 11.6 3 16.1-5.2 4-24.1 5-30.9 4.7-32.1-1.5-51-22.5-48.1-54.8 2.7-30.1 26.7-48.1 56.6-43s30.7 18.3 32.4 37.6c.5 6.1.7 12-5.1 15.6-.7.4-3.2 1.6-3.8 1.6h-54.3Zm37.1-17.3c.3-9-3.6-18.6-13.4-20.1-3.3-.5-7.1-.1-10.2 1-7.9 2.9-12.4 11.6-12.6 19.6l36.3-.5Z" class="st0"/><path d="M90.4 162.8c-10.1 30.4-7.2 62.5 9.1 90.1 6.1 10.3 16.1 21.4 27.2 26.2-2.3-.4-4.6-1-6.9-1.6-19.2-4.9-39.5-9.5-58.5-15.1-29.4-8.7-40.3-42.2-21.3-66.3 25-25.2 49.8-50.5 75.2-75.3l-9.5 12.1c-6.5 9.2-11.8 19.2-15.3 29.9Z" class="st0"/><path d="M196.9 136.5c2.3 12.3-.8 24.8-8.7 34.5-.4.5-1.1.9-1.4 1.3-10.2-6.1-21.5-10.5-33.2-12.8-18.9-3.8-38.6-2.5-56.8 3.8 3.6-10.7 8.8-20.7 15.3-29.9l9.5-12.1c3.3-3.2 6.2-6.7 9.9-9.4 22.7-17.2 55.9-6.2 64.3 20.6.4 1.3.6 2.7 1 4.1ZM651.4 155c6.9-.3 17.5.6 24 2.8 7.1 2.4 9 11.3 3.1 16s-8.6 1.3-13.6.3c-6.2-1.2-19.9-2.3-22.3 5.6s4.8 10.2 10.2 12.2c13.4 5 30.8 6.8 35.3 23.3 5.3 19.4-8 33.6-26.1 37.2-9.7 2-27.5 1.6-36.7-2.2-8.3-3.3-7.9-15.3.4-18.1 4.6-1.6 8.7 1 13.3 1.9 6.9 1.3 22.6 2.3 24.5-6.9 2.2-10.5-15.4-12.8-22.6-15.2-13.6-4.5-23.5-11.2-23.9-26.9s16.3-29.3 34.4-30.1Zm-267 20.1 3.7-6.6c6.3-8.9 15.9-14.2 27-13.6 14.7.8 13.7 20 1.3 20.9-1.8.1-4.1-.4-6-.4-15.5 0-22.6 10.8-23.4 25.2-.7 13.4.9 27.9 0 41.2-1.1 15.2-22.7 16.2-25.4 1.3v-79.7c1.4-7.2 9.1-11.2 15.8-7.5 6.8 3.7 5.4 12.8 7 19.3ZM115 251.6l30.2 30.3-.7.5c-2-.4-4.1-.7-6-1.6-11.1-4.8-21.2-15.9-27.2-26.2 1.1-.8 2-1.9 3-2.9s.6-.2.6-.3Z" class="st0"/></svg>