<svg xmlns="http://www.w3.org/2000/svg" xml:space="preserve" style="enable-background:new 0 0 1080 1080" viewBox="0 0 1080 1080"><path d="M596.344 540.058c.101 9.692.901 19.357 4.247 28.651 2.856 7.932 7.305 14.662 14.521 19.307 5.171 3.329 10.9 4.999 16.98 5.483 9.237.735 18.285-.513 27.219-2.793.646-.165 1.276-.409 1.929-.53 1.901-.351 3.224.207 3.96 2.004a708.85 708.85 0 0 1 6.842 17.283c.854 2.25.104 3.479-2.428 4.668-8.604 4.039-17.606 6.802-26.997 8.241-12.89 1.975-25.688 1.692-38.292-1.948-15.584-4.501-27.086-14.031-34.696-28.313-4.906-9.208-7.616-19.101-9.142-29.36-1.82-12.238-2.147-24.53-1.049-36.841 1.151-12.91 3.736-25.465 9.712-37.138 8.417-16.44 21.73-26.595 39.694-30.411 20.981-4.456 41.178-1.442 60.608 7.346 2.988 1.352 3.467 2.603 2.282 5.671a1497.984 1497.984 0 0 1-6.156 15.706c-1.204 3.017-2.102 3.484-5.259 2.674-8.077-2.07-16.248-3.486-24.611-3.269-9.096.236-17.572 2.428-24.595 8.619-5.925 5.223-9.352 11.968-11.582 19.4-2.493 8.308-3.116 16.855-3.187 25.55zm-62.238-22.666c-1.503-10.736-4.095-21.154-9.149-30.837-7.469-14.31-18.862-23.754-34.579-27.818-10.694-2.765-21.544-2.97-32.421-1.633-19.707 2.422-34.42 12.25-43.481 30.071-6.477 12.738-8.898 26.51-9.857 40.6a178.35 178.35 0 0 0 .545 30.603c1.152 11.074 3.461 21.867 8.165 32.016 7.614 16.43 20.019 27.203 37.864 31.192 12.764 2.853 25.618 2.759 38.338-.193 10.366-2.406 19.336-7.479 26.612-15.394 7.141-7.767 11.578-16.976 14.508-26.978 3.708-12.657 4.826-25.654 4.86-38.78-.019-7.644-.344-15.27-1.405-22.849zm-36.718 41.127c-.449 7.62-1.379 15.19-4.002 22.441-1.143 3.161-2.649 6.117-4.781 8.739-2.794 3.437-6.295 5.791-10.577 6.948-5.368 1.451-10.782 1.47-16.126.058-6.947-1.835-11.486-6.501-14.382-12.916-2.621-5.806-3.797-11.983-4.504-18.251-.973-8.637-1.214-17.315-1.149-26.002-.055-8.496.19-16.985 1.154-25.429.715-6.259 1.881-12.428 4.535-18.233 3.906-8.545 10.55-13.036 19.875-13.564 2.659-.15 5.319-.116 7.984.355 8.141 1.438 13.508 6.245 16.812 13.591 2.771 6.159 3.979 12.72 4.641 19.38 1.418 14.277 1.362 28.583.52 42.883zm321.645-36.976c-1.183-11.067-3.485-21.864-8.186-32.017-7.51-16.22-19.718-26.908-37.273-31.126-9.388-2.256-18.926-2.441-28.483-1.639-8.546.717-16.718 2.901-24.28 7.071-11.738 6.473-19.337 16.491-24.362 28.653-4.719 11.421-6.702 23.453-7.45 35.692-.699 11.45-.485 22.897 1.068 34.292 1.479 10.845 4.125 21.345 9.259 31.092 7.103 13.485 17.753 22.801 32.52 27.024 14.073 4.024 28.317 4.034 42.479.669 13.905-3.304 24.739-11.18 32.398-23.297 3.382-5.35 5.911-11.1 7.798-17.138 4.143-13.255 5.357-26.897 5.415-41.233-.03-5.67-.242-11.868-.903-18.043zm-38.387 47.708c-.82 5.484-2.104 10.849-4.64 15.837-3.978 7.822-10.36 11.954-19.115 12.495-3.549.219-7.07.103-10.509-.828-6.27-1.698-10.701-5.66-13.662-11.358-2.672-5.143-4.043-10.691-4.814-16.377-1.955-14.424-1.913-28.918-1.32-43.425.32-7.827.956-15.613 3.037-23.21.757-2.764 1.713-5.451 3.065-7.988 3.389-6.361 8.451-10.466 15.686-11.642 6.349-1.032 12.555-.821 18.384 2.275 5.748 3.052 8.888 8.186 11.032 14.067 2.507 6.876 3.429 14.063 3.943 21.301.459 6.471.731 12.957.601 18.158.021 11.128-.231 20.948-1.688 30.695zm-403.768-82.172c-5.018-12.802-14.128-21.803-26.974-26.884-7.664-3.032-15.668-4.034-23.865-3.801-13.839.392-27.678.752-41.517 1.151-6.585.19-13.169.427-19.753.668-3.322.121-4.585 1.45-4.652 4.795-.01.477-.005.955-.005 1.432l.001 76.179c.001 25.584.052 51.168-.051 76.752-.017 4.134 1.632 6.226 6.181 6.125 8.496-.189 16.999-.039 25.499-.061 4.237-.01 5.634-1.4 5.642-5.664.029-16.613.024-33.225.042-49.838.004-3.926 1.004-4.905 4.894-4.874 8.403.066 16.806.135 25.21.206 5.278.045 10.484-.57 15.585-1.898 15.767-4.107 27.385-13.332 33.597-28.509 6.193-15.132 6.124-30.576.166-45.779zm-29.174 31.619c-2.522 8.883-8.906 13.656-17.542 15.854-6.36 1.618-12.847 1.607-19.341 1.292-2.957 0-5.916.067-8.871-.017-3.49-.099-4.514-1.206-4.518-4.78-.015-14.217-.016-28.434.001-42.651.004-3.233 1.064-4.381 4.159-4.51 7.246-.302 14.493-.567 21.736.089 4.302.39 8.487 1.263 12.422 3.104 6.559 3.07 10.663 8.112 12.275 15.204 1.252 5.51 1.213 11.011-.321 16.415z" style="fill:#fff"/></svg>