<svg xmlns="http://www.w3.org/2000/svg" id="Layer_1" version="1.1" viewBox="0 0 886.9 329.6"><defs><style>.st0{fill:#fff}</style></defs><path d="M152.3 147v-21.4L115 104.7l-36.4 20.4v42.3c.1 0 35.3 20.6 35.3 20.6l1.4.2 87.7-50c4.8-1.7 10.5-1 15 1.1 13.9 6.1 28.1 17.3 42 23.9 4.2 2.4 6.2 7.5 6.6 12.2 1.3 16.5-1 34.7 0 51.3-.7 4.8-2.6 9.6-6.8 12.3-13.7 7-26.9 16-40.6 22.9s-11.2 3.8-18.3.7c-12.8-7.6-26.4-14.2-39.1-22-4-2.5-7-4-8.7-8.8s-.6-13.7-.7-19.7l18.5-11.2 2.1-.6v22.6l36.4 21.3 36.3-21.1v-42.7c.1 0-35.6-20.7-35.6-20.7h-.9l-85.1 48.7c-5.6 3.2-11.7 2.6-17.5.2-13-8.1-27.5-14.6-40.3-22.8-5.8-3.6-7.9-7.4-8.4-14.4-1.3-16 1-33.5 0-49.7.7-5.7 2.4-9.6 7.2-12.7 13.5-8.9 30-15.7 43.7-24.7 5.8-2.7 10.4-2 16 .7 14.6 6.9 29.6 17.5 43.8 25.4 6.1 5.9 4.3 16.9 4.3 24.6l-20.6 11.8Zm502-2.8v-5.9l.6-.6h20.6v81.2c0 11.2-12.5 22.6-23.4 22.6H610v-16.3h34.8c5 0 10.4-5.9 10.4-10.8V204c-4.3 4.4-9.5 7.3-15.7 8.1-32.5 4.3-47.3-28.7-36.6-55.7 8.1-20.3 35.3-27.5 51.5-12.2Zm-18.8 9.9c-23.2 2.2-21.5 42.9 3.1 41.4 23.7-1.5 22.3-43.8-3.1-41.4ZM340 205.7v36.2l-20.4-.4V137.3h20.8v7.7c4.4-4.3 9.7-7.1 15.8-8 46.8-7.3 54 66.2 12.3 75s-21.2 1.1-28.5-6.3Zm15-51.6c-23.5 2-21.6 43.2 3.1 41.4 23.7-1.8 22.2-43.6-3.1-41.4Zm366-16.7c27.3-2.8 48.5 16.5 44.4 44.4-6.7 45.8-80.9 41.1-77.7-9.7 1.1-18 15.4-32.8 33.3-34.7Zm4 16.7c-24.4 1.9-22 43.3 3.1 41.4 24.2-1.8 22.7-43.4-3.1-41.4Zm123.5 57.7h-21.2v-44.6c0-.9-1.3-4.6-1.8-5.5-5.3-10.4-21.6-8.9-26.1 1.6s-1.4 4.1-1.4 4.7v43.8l-20.4-.4v-74.1H798v9.4c6.9-8.5 17.4-11.9 28.2-10.1s21.4 13.9 22.3 27.4v47.8Z" class="st0"/><path d="M436 137.4c27.2-2.6 48.5 16.4 44.3 44.3-6.9 46-81.6 41.5-77.6-10.9 1.3-17.3 16.1-31.8 33.3-33.5Zm4.1 16.7c-23.4 1.8-22.5 40 .3 41.4s26.9-43.5-.3-41.4Zm104.7-16.4 15.6 46.8 14.9-46.8h21.2l-37.1 104.2h-19.9l10.6-31.1-26.5-73.1h21.2zm-51.3-32.6h20.4v106.6h-20.4z" class="st0"/></svg>