<svg xmlns="http://www.w3.org/2000/svg" id="Layer_1" version="1.1" viewBox="0 0 493.6 357.1"><defs><style>.st0{fill:#fff}</style></defs><path d="M30.3 285.1c-13.9-2.8-17.7-6.1-17.7-12.7S17.8 262 26.5 262s16.4 5.1 18.1 13.6h9.8v-21.9H44.3v8c-2.7-5.4-8-9.3-19-9.3s-23.9 7.5-23.9 20.3 6.7 19.7 26.3 23.2c11.7 2.2 17.8 4.9 17.8 12.9s-5.2 12.4-15.5 12.4-18.7-8.1-20.3-16.9H0v25.2h10.1v-9.3c1.9 4.6 8 10.6 19.7 10.6 18.1 0 27.2-9.3 27.2-22.7 0-15.9-11.3-19.8-26.8-22.9Zm100.1-21.6H141v-9.8h-22.6v11.9c-4.5-7.4-12-13.2-23.7-13.2-19.1 0-34.6 16.4-34.6 39.5v1.2c0 23.7 15.3 37.6 33.4 37.6s20.7-6.7 24.9-14v12.7h22.9V320h-10.9v-56.5Zm-11.6 28.6c0 19.4-11.1 28.7-24 28.7s-22.3-9.1-22.3-28.2v-1.2c0-18.5 9.4-29 23.3-29s23 9 23 28.5v1.2Zm121.2-54c4.5 0 8.3-3.6 8.3-8.3s-3.8-8.1-8.3-8.1-8.3 3.5-8.3 8.1 3.8 8.3 8.3 8.3Zm66.7 0c4.5 0 8.3-3.6 8.3-8.3s-3.8-8.1-8.3-8.1-8.3 3.5-8.3 8.1 3.8 8.3 8.3 8.3Z" class="st0"/><path d="M313.3 253.7h-22.9v9.8h10.9V320h-21.1V217.5h-23v9.8h10.9v92.6h-21.4v-66.3h-44.4v12.2c-4.5-7.4-12-13.5-24.8-13.5-20.8 0-35.3 17.1-35.3 37.6v1c0 20.8 14.6 35.9 34.5 35.9s21.4-6.9 25.6-14.3v11c0 16.2-9.4 23.3-24.3 23.3s-20.1-4.3-21.9-13.2h-12.3c1.9 12.7 11.9 23.3 34.3 23.3s36.2-10.7 36.2-32.7v-60.8h20.4v56.5h-10.6v9.4h100.2v-9.4h-10.9v-66.3Zm-110.7 36.5c0 16.9-10.7 26.8-24.8 26.8s-23.3-9.8-23.3-26.3v-1.2c0-15.8 9-27.1 24-27.1s24 9.8 24 26.8v1ZM406 253.7v9.8h11.4l-17.2 44.4-19-44.4h11v-9.8h-47.4v-17.2h-12v17.2h-10.9v10.1h10.9v46.6c0 12 6.7 20 21.9 20s7.5-.7 10.9-1.7v-10.1c-3.5 1.2-6.8 1.7-9.8 1.7-7.5 0-10.9-3.6-10.9-11v-45.5h23.8l25.2 57.8-10.4 24.8h-11.6v9.4h34.9v-9.4h-11.7l34.2-82.8h9.3v-9.8h-32.4ZM288.8 128.8l-66-38.1V59l29.6 17.1c11.8 6.8 26.9 2.7 33.7-9.1 6.8-11.8 2.7-26.9-9.1-33.7L219.2 0v51.4l-48.6-28.1c-10.1-5.8-22.9-2.3-28.7 7.7-5.8 10.1-2.3 22.9 7.7 28.7l66 38.1v31.1l-29.6-17c-11.8-6.8-26.9-2.7-33.7 9.1-6.8 11.8-2.7 26.9 9.1 33.7l57.9 33.3v-50.9l48.5 28c10.1 5.8 22.9 2.3 28.7-7.7 5.8-10.1 2.3-22.9-7.7-28.7Zm161.9 125.8v-2.9h2.6v-15.5h-4.4v3.2h-3.2v-6.2h19.2v6.2h-3.2v-3.2h-4.4v15.5h2.6v2.9h-9.2Zm24.8 0h-8.2v-2.9h2.4v-15.6h-2.4v-2.9h8l5.3 14.4 5.3-14.4h7.8v2.9h-2.4v15.6h2.4v2.9h-8.6v-2.9h2.4v-14.2l-6.5 17.1h-1.3l-6.7-17.1v14.2h2.5v2.9Z" class="st0"/></svg>