<svg xmlns="http://www.w3.org/2000/svg" id="Layer_1" version="1.1" viewBox="0 0 720 720"><defs><style>.st0{fill:#fff}</style></defs><path d="M108 507.9c-1.1-.3-.6-5.3-.4-6.4l.5-.3c4.5.3 9.9-.6 14.3 0s1.8.4 2.5 1.3l17.7 43.2 17.8-43.1c.8-.7 1.8-1.2 2.9-1.3 4.3-.5 9.5.3 13.9 0l.5.3c.4.5.5 5.7-.4 6.4h-7v48.2h6.6c.1 0 .6.6 1.1.4v6.3h-22v-6.3l6.8-.4v-41.4l-16.2 39.8c-2 3.5-6.3 3.3-7.9-.4l-16.1-39.5v41.4l6.8.4v6.3h-22v-6.3c.4.1.9-.4 1.1-.4h6.6v-48.2h-7Zm259.2 0c-1.1-.3-.6-5.3-.4-6.4l.9-.4c10 .7 21-.9 30.9 0 15.7 1.4 21.3 20.5 8.3 29.4 9.5 3.2 12.6 12.8 9.2 21.9-2.5 6.5-9.6 10-16.2 10.5-10.5.8-22-.6-32.5 0-1.3-.4-1-6.7.4-6.7h6.6V508h-7Zm30.1 0c-4.7-.6-10.6.5-15.4 0v20.3h15.4c.5 0 3.6-1.3 4.2-1.7 7.9-4.5 5.3-17.3-4.2-18.6Zm-15.5 26.2v21.8l.6.6h14.4c2.4 0 7.1-1.6 9.1-3.2 5.1-4.2 4.8-14.5-1.4-17.6s-4.6-1.6-5.2-1.6h-17.6ZM622 507.9v-6.1l.6-.6h6.6v19.9h-7.6c.7-8.2-9.3-12.7-16.3-13.1-25.6-1.5-31.5 37.9-9.2 46.8 7 2.8 17.3 1.5 23.2-3.3s3.6-3.3 3.6-3.6v-7H606c.3-2-.7-4.8.6-6.3h23.3l.6.6v27.7h-6.8v-6.3c-12.1 10.5-31.7 9.5-42.3-2.8s-9.6-39.1 6.2-48.7c10.2-6.3 26-6.5 34.4 2.9ZM58.3 540.5c.4 3.4.4 4.7 2.4 7.6 4.7 6.8 13 9.7 21 8 10.2-2.2 13-12.8 2.4-17.4s-33.9-4.6-31.3-24.5 27.8-17.6 36.5-7.4l.6-5.3c.6-.4 6.1-.5 6.8.4V522c-1.2.5-7.1.7-7.6 0 .7-9.9-8.3-14.6-17.2-13.9s-15.8 11.7-5 17.2c9.2 4.6 28.9 5 32.4 16.7 2.7 9.1-3.1 18.3-12.1 20.8s-21.9.6-29.5-8.2v8.5h-6.6l-.6-.6v-21.1l.6-.6h7Zm190.9-32.6c-1.1-.3-.6-5.3-.4-6.4l.5-.3c9.6.4 20-.8 29.6 0 9.1.7 17.3 6.4 18.3 15.9s-2.9 17.1-12.2 19.8c4.5 5.7 7.2 12.8 10.6 19.2 1.5.3 5.6-.5 6.5.9v5.5c-.4.6-8.1.5-9.3.4s-1.4-.4-2.3-1.1c-3.9-2.9-7.8-15.9-11.1-20.7s-2.5-2.8-3.1-2.8h-12.1v17.8h7.4c.1 0 .6.6 1.1.4v6.3h-23.5c-1.2-.9-.9-6.8.4-6.8h6.6v-48.2h-7Zm29.6 0c-4.6-.6-10.3.4-15 0V532h13.7c.7 0 4.2-.9 5.1-1.3 6.1-2.1 7.2-7.9 6.5-13.7s-5.4-8.6-10.3-9.1Zm143.4 0c-1.1-.3-.6-5.3-.4-6.4l.5-.3c9.6.4 20-.8 29.6 0 9.1.7 17.3 6.4 18.3 15.9s-2.9 17.1-12.2 19.8c4.5 5.7 7.2 12.8 10.6 19.2 1.5.3 5.6-.5 6.5.9v5.5c-.4.6-8.1.5-9.3.4s-1.4-.4-2.3-1.1c-3.9-2.9-7.8-15.9-11.1-20.7-.4-.6-2.5-2.8-3.1-2.8h-12.1v17.8h7.4c.1 0 .6.6 1.1.4v6.3h-23.5c-1.2-.9-.9-6.8.4-6.8h6.6v-48.2h-7Zm29.6 0c-4.6-.6-10.3.4-15 0V532h13.7c.7 0 4.2-.9 5.1-1.3 6.1-2.1 7.2-7.9 6.5-13.7s-5.4-8.6-10.3-9.1Zm67.5 48.2v-48.2h-7c-1-.7-.8-5.8-.4-6.4l.9-.4c16.8.9 37.7-4.3 49 11.5s7.5 26.8 1.2 37.5c-10.8 18.2-32.6 11.6-50.2 12.8l-1-.7c-.1-1.1-.5-6.1 1-6.1h6.6Zm7.6-48.2v48c.3.4.6.5 1.1.6 3.6.7 12-.2 15.8-1.1 13.5-3.2 16.4-15.4 15.3-27.8-.9-9.6-9-19.7-19.2-19.7H527Zm-344.5 55c-1-.3-.8-5.2-.3-6.2 1-1.2 5.2-.3 6.8-.6l17.8-48.1c-5.8.6-5.9-.7-5.4-6.1l.3-.5c.6-.4 12.3-.4 13.7-.1 3.4.5 4 3.8 5.2 6.6 6.7 15.7 12 32.4 18.3 48.3l7.1.5c-.1 2 .7 4.7-.6 6.3h-20.9c-.4-1.4-.9-5.3.1-6.2l6.7-.5-5.8-14.3H202c0 .1-5.5 14.3-5.5 14.3l6.8.4v6.3h-20.9Zm21.8-27.1h19l-9.5-25.4-9.5 25.4Zm482.6-18.6H680v-9.3h-25.8V529H677c-.3 2 .7 4.8-.6 6.3h-22.2v21.1h25.4v-8.2c0-.2.6-1 .8-1.3.8-.5 5.6-.5 6.3.4v15.4h-47.8v-6.3h7l.6-.6v-48h-7c-1-1.5-1-5.3 0-6.8H686l.6.6V517Zm-335-9.3h-15.6v48.2h6.1c1.3 0 1.6 5.9.4 6.8h-21.8l-.2-5.9c.1-.2 1.1-.8 1.3-.8h6.1V508h-15.6v9.5l-.6.6h-6.3l-.6-.6v-15.6l.6-.6h53.3l.6.6v15.6l-.6.6h-6.3l-.6-.6V508Zm145.1 0v48.6h7.6v6.3h-22.8v-6.3h7l.6-.6v-48h-7c-1-.7-.8-6.2-.2-6.6h21.7c0-.1.5.2.5.2.4.5.5 5.7-.4 6.4h-7Zm-202.5 93.5v-2.5h2.5v-18.2h-2.5v-3h12.5c.3 0 2.3.8 2.7 1.1 3.6 2.2 3.9 7.6.4 10.1 3.5 1.9 4.9 6 2.7 9.5s-3.2 3-4.2 3h-14.2Zm5.9-13.1c3.5 0 8.9.9 8.9-4 0-4.6-5.5-4-8.9-4v8Zm0 10.5h7c.4 0 2.4-1.4 2.7-2 1.6-2.8-.3-6.5-3.5-6.5h-6.1v8.5Zm187.8 1.1c0 .2-.5 1.5-.7 1.5h-2.3l-.2-2.1c-8.1 6.1-18.5 1.1-18.8-9.1-.4-10.4 10.4-16.5 18.6-9.9v-2.5h2.5c.6 2.7.6 5.3 0 8l-2.5-.2c-1.5-6.2-10-6.6-13.4-1.6-4.3 6.1-.7 15.5 7.3 14.9s6.9-2 6.1-5.5h-6.3v-2.5h9.1l.6.6c-.2 2.7.3 5.9 0 8.5Zm-116.7-12.5v-2.1h5.1l-.2 2.1-2 .6c-.6 4.9 1.3 13.8-1 18-2.3 4-11 4.6-13.4.6l1.1-1.8c5.5 3.5 11.7 2 10.4-5.6-7.4 7.5-16.1-2.4-11.6-10.6 2.4-4.4 8.4-5 11.6-1.2Zm-6 .1c-5.5 1.2-5.3 12.7 2 11.7 6.4-.9 5-13.3-2-11.7Zm146.4.3-1.9-.4-.2-2.1h5.1l.2 2.1c2.9-3.9 8.9-3 11.3 1 4.3 7.3-2.9 17.3-10.1 12.3-.7-.5-.7-1.3-1.4-1.4v7.2h2.5v2.5h-7.6v-2.5h2.1v-18.6Zm7.1-.3c-6.1 1-5.7 12.7 1.6 11.7 6.4-.9 5.1-12.8-1.6-11.7Zm-164.4-9.8v20.9c1.4 1.1 3 .3 2.5 2.7h-4.4l-.9-2.1c-4 4.7-10.7 2.9-12.4-2.9s5-15.1 12.1-9.4v-6.8h-2.1l.4-2.4 4.7-.2Zm-8.6 9.8c-5.7 1.1-5.2 10.9 0 11.7 8.2 1.3 7.8-13.2 0-11.7Zm77.9-.9c2.5-1.8 6.4-2.6 8.9-.2s1.7 2.5 1.7 3v9.9h2.1v2.1c-1.1-.2-4.6.6-5-.7-.8-3.6 1.9-12.1-3-13.1s-4.7 1.1-4.7 2.6v9.1h2.1v2.1h-7.6v-2.1l2.1-.2.4-18.8-2.1-.2-.4-1.7c.3-1 4.8-1 5.5 0v8.2Zm-208-5.9v18.2H226l.2-3.4c4.2-2 2.5 3.5 2.8 5.9h-19v-2.5h2.5v-18.2H210v-3h8.2c1.3 0 .9 4.3-2.3 3Zm289.7 18.6h2.1v2.1H503l-.7-2.1c-3 3.9-11.8 3.7-11.6-2.3s7.9-5.3 11.8-5.3c-.3-3-2.2-4.4-5.2-4.1s-6.2 3-5.4-.2 9.7-3.1 12-.3 1.5 2.9 1.5 3.2v9.1Zm-6.9-5.4c-1.6.2-5.5.8-4.8 3.3 1.1 4 8.9 1.9 8.8-1.9s-2.3-1.5-3.9-1.4Zm-117.5-.1c0 4.7 4.6 6.8 8.6 4.6s1.4-1.6 2.2-1.6l1.4 1.4c-4.8 6.6-15.5 3.9-15.6-4.6-.2-9.2 12.2-11.9 15-4s1.1 4.2 0 4.2h-11.6Zm9.3-2.2c-.3-5.9-9.3-5.6-9.3 0h9.3Zm50.8 2.2c0 4.7 4.6 6.8 8.6 4.6s1.4-1.6 2.2-1.6l1.4 1.4c-4.8 6.6-15.5 3.9-15.6-4.6-.2-9.2 12.2-11.9 15-4s1.1 4.2 0 4.2h-11.6Zm9.3-2.2c-.3-5.9-9.3-5.6-9.3 0h9.3Zm-203.9 2.2h-12.3c.2 3.9 3.4 6.3 7.2 5.3s3.7-3.7 4.9-1.5-2.6 3.4-3.8 3.8c-4.9 1.5-10.4-.9-11.2-6.2-1.8-12.7 16-14.3 15.2-1.4Zm-2.9-2.2c0-6-8.7-5.6-9.3 0h9.3Zm34.6-5.5c.1 0 .4-1.4 2.2-.8v5.5h-2.1c.4-4.1-7.3-4.4-7.2-1s10.4 1.9 10.2 7.6-7.9 5.9-10.8 2.8l-.2 1.2h-2.5c.3-2-1.2-6.8 2.1-5.7.2 3.3 5.8 5 7.8 2.8s-4.7-3.8-6.4-4.5c-5.9-2.6-2.6-9.7 3.8-8.9s2.9 1.2 3.2 1.1Zm132.9-4.6v3.8h4.7l-.4 2.4-4.3.2c.5 4-2.3 14 4.8 10.6 2.1 1.8.5 3-1.7 3.3-8.4 1-5.7-8.8-6.1-13.9l-2.1-.2-.4-2.4 2.4-.4.2-3.4h3Zm-157.4 0 .4 3.6 4.3.2-.4 2.4-4.3.2c.4 3.8-2 14 4.9 10.7l1 1c.7 2.5-5.8 3.7-7.9-.1s-.5-11.2-.9-11.6-2.8.6-2.1-2.6h2.1l.2-3.4 2.8-.4Zm62.2 19.9v-2.1l2.1-.2.4-11.2-2.1-.2-.2-2 4.9-.4.2 3.4c1.7-2.6 4.3-3.8 7.4-3.4v2.5c-2.3-.6-7.2 2.1-7.2 4.4v7h2.1v2.1H316Zm19-16.1v13.3l2.1.7v2.1h-7.2v-2.1h2.2v-11.5l-2-.4-.2-2.1h5.1zm-72.7-2.1c-.5-1.9 1.9-.7 1.7-3l-1.9-.4c-.4-1-.3-2.2.7-2.8 3.5-1.8 4.1 6.9-.4 6.1Zm70.5-3.3c3.4-1 3.7 4.2.4 3.7s-2.1-3.2-.4-3.7Zm138.6-376.3c-1.3.1-.4-1.2-.2-1.8 2.3-8.1 6.2-16.2 8.3-24.5 13.7-53.9-12.6-76.5-58.3-41.2-34.1 26.3-68 79.9-76.9 122.1-4.3 20.4-6.6 55.9 23.7 53.9 3.6-.2 6.7-1.6 10.1-2.4s2.1-.9 2 .4c-22.3 10.5-45.5 9.5-50.4-18.9-9.2-52.7 43.2-134.5 81.2-168.5 33.9-30.3 85.7-46 78.7 20.9-2.2 20.7-10.2 41.2-18.3 60.1Z" class="st0"/><path d="M271.8 252.2c.2 1-1.2.8-2 1-2.6.6-5.5.6-8 1.2-23.5 4.7-76.2 24.3-47.5 55.6 30.9 33.7 117.6 36.9 159.4 28 20.6-4.4 67.8-20.7 49.7-49.9-.7-1.1-6.3-7.1-5.8-7.7 1.2-.3 1.6.7 2.3 1.3 29.5 24.4 14.3 46.8-15 59.9-50.5 22.4-138.1 18.6-187.5-5.8-11.4-5.7-26.1-15.1-31.1-27.4-12.4-30.9 34.9-47.1 57.1-52.1 9.1-2.1 19-4 28.4-4.1Z" class="st0"/><path d="m416.3 278.4.3 2-1.6-.7v-1.3h1.3zm-38.1-21h.6v1.3h-.6z" class="st0"/><path d="M387.6 241.2c-4 3.7-7.1 10.1-8.1 15.5-1.2.2-.6-1.5-.6-2.2 1.3-12.4 9.7-28.2 23.3-29.9 33.7-4.2 71.1 50.5 85.1 76.3 18.7 34.5 39.8 93.6 29.2 132.5-10 37-41.4 25-62.9 6.1-13.3-11.8-25.2-27.3-34.5-42.4-.5-1.3 1.2.5 1.3.7 7.1 8.2 12.1 16.6 20.3 24.3 21.9 20.6 53.2 31.1 59.3-9.1 7.4-48.7-28-126.8-63.8-159.7-11.8-10.8-33.8-25.8-48.7-12.2Z" class="st0"/></svg>