<svg xmlns="http://www.w3.org/2000/svg" id="Layer_1" version="1.1" viewBox="0 0 720 720"><defs><style>.st0{fill:#fff}</style></defs><path d="M82.5 317.6c36.1-.5 72.2.4 108.2 0v112.8s-.2.6-.6.6h-4.2c-13.3.2-26.8-.4-39.9-.6v-4.2c0-6.5.2-13.1 0-19.6s-1.2-6-.3-9.3c-1-.2-1.5.3-2.1.9-8.6 6.7-19.2 19.4-27.2 27.5l-4.8 4.8c-8.3 8.4-16.5 17-24.8 25.3s-3.3 2.4-4.2 4.2c-.4 0-1.5.6-2.7.6-10.6.1-21.2-.2-31.8 0 .1-10.8-.2-21.6 0-32.3s.6-2.3.6-2.7c1.8-.9 2.9-3 4.2-4.2 8.5-8 17-16 25.4-24.1 1.4-1.4 2.8-2.9 4.2-4.2l27.8-26.9c.9-.8 4.1-1.8.3-2.1-9.2-.8-18.9-.1-28.1-.6s-2.8 0-4.2 0c-.2-13.5-.6-27.3-.6-41v-4.2c.1 0 .5-.6.6-.6h4.2Zm25.4 108.6c14.2-14.1 28.6-28.2 42.9-42.2v41.6h34.5V323H83.1v35.6H126c-14.3 14.2-29 28.2-43.5 42.2s-2.8 2.8-4.2 4.2c-8.2 8-16.7 15.8-24.8 23.8V455h25.7c8.4-8 16.3-16.6 24.5-24.7s2.8-2.8 4.2-4.2Zm252.7-122.5v7.8c10.1-11.6 33.6-12.2 41.1 2.4 8.5-10.9 25.9-14.6 37.9-7.4 4.8 2.9 10.5 11 10.5 16.7v40.7h-10.9v-37.1c0-.9-1.6-5.8-2.2-6.9-4.8-9.4-19.7-9.4-26.5-2.4s-5.2 9.3-5.2 12.9v33.5h-10.9v-37.1c0-1-1.7-6.3-2.3-7.4-5.6-9.9-21.6-8.6-27.9.1-1.8 2.5-3.6 8.5-3.6 11.5v32.9h-10.9v-60.3h10.9Zm137.9 128.6h-46.6c2.5 12.4 18.3 14.2 28 9.6s3.7-3.1 4.8-2.9c1.7 1.4 9.3 8.6 8.8 10.3-1.2 4.7-15.8 9.1-20.2 9.5-22.3 1.8-41.9-11.2-39.5-35.2s41.2-37.2 58.3-16.1c2.6 3.2 6.3 11.3 6.3 15.4v9.4ZM481.6 422c-2.1-16.9-28.1-16.9-29.6 0h29.6Zm137.9 36.2H602v-34.7c0-.7-1-4.4-1.3-5.3-3.1-8.6-15.9-9-21.7-3.2s-4.2 7.6-4.2 9.7v33.5h-18.1v-61.5h17.5v6.6c11.8-11.1 35.2-10.2 42.8 5.3.7 1.4 2.6 6.4 2.6 7.7v41.9Zm-242.5 0h-17.5v-34.7c0-.7-1-4.4-1.3-5.3-3.1-8.6-15.9-9-21.7-3.2s-4.2 7.6-4.2 9.7v33.5h-18.1v-61.5h17.5v6.6c11.8-11.1 35.2-10.2 42.8 5.3.7 1.4 2.6 6.4 2.6 7.7v41.9Zm307.8-61.5v10.5l-31.5 37.1h32.1v13.9h-55.1v-10.5l31.5-37.2h-30.3v-13.8h53.3zM300.6 284c10.8-1.1 23.1.5 32.1 6.8l-3.9 9.3c-9.6-6.1-25.9-9.9-35.9-3.3-6.5 4.3-7 12.7-.4 17.2 11.9 8 39.4 5.1 43.1 23.4 6.5 31.7-44.9 33.8-60.8 17.3l3.9-8c.9-.3 5.9 3.4 7.3 4.1 9.4 4.6 33.4 8.2 38-4.2s-3.2-12.2-10.1-14.6c-12.4-4.3-35.3-5.1-37.3-21.9s9.5-24.5 24-26ZM412 397.9h15.1v13.9H412c.6 8.4-.8 18 0 26.3.8 8.7 8.9 7.4 15.1 5.1l4 12.1c-10.8 6.8-30.8 4.8-35.7-8.5s-1.5-5.3-1.5-5.7v-29.3h-9.7v-13.9h9.7v-15.1h17.2l.9.9v14.2Zm105.3-33.8h-10.9v-7.2c-7.1 8.1-19.9 9.8-29.8 6.5-19.8-6.6-14.4-34.2 5.9-34.2h23.3c1.5-17.5-15.9-18.9-28.6-13.7s-5.8 3.4-6.3 3.4c-1 .1-5.3-6.8-3.9-8.7 2.4-3.2 14.5-6.4 18.6-6.8 17.6-1.6 31.7 5 31.7 24.4v36.5Zm-11.5-27.2h-20.3c-3.3 0-9.1 2.9-9.8 6.5-3 14.8 17.4 15.7 25.9 8.3s4.2-4.7 4.2-5.4v-9.4Zm41.7 59.2V413c-6.6-1.3-15.1.2-18.4 6.7s-2.2 6-2.2 6.9v31.7h-18.1v-61.5h17.5l.3 7.9c4.3-6.5 13.4-8.7 20.9-8.5Zm-267.9-17.5h18.1v79.6h-18.1zm316.9-88.1v13.3H614v9.1h-17.5v35.3c0 .8 1.7 3.5 2.4 4.2 2.4 2.5 6 3.1 9.3 2.6s5.6-3 6.7-1.8 3 7.1 2.6 7.8c-8.4 5.7-23.1 5.4-29.2-3.6s-2.8-5.9-2.8-6.9v-37.7h-10.3v-9.1h10.3v-13.3h10.9Zm-27.2 12.6v10.3c-8.3-.5-16.2 2.1-19.6 10.3-.9 2.2-2.1 7.1-2.1 9.3v31.1h-10.9v-60.3h10.9v9.1l4.5-4.8c4.7-3.8 11.2-5.1 17.2-4.8Zm-365.9-14.4h16.9v141.8h-15.7v-4.2c3.6 0 8.5.8 11.5-.9V293h-12.7v-4.2Z" class="st0"/><path d="M64.3 318.2v4.2H52.8v99c-1.3 1.2-2.4 3.3-4.2 4.2.4-35.8-.3-71.6 0-107.4h15.7Zm125.8 112.9v29h-16.9v-4.2h12.7v-24.7h4.2Zm-98-142.4v4.2h-9.7v24.7h-4.2v-29h13.9Zm21.8 0v4.2H92.1v-4.2h21.8Zm42.9 167.1v4.2h-20.6v-4.2h20.6Zm28.5-167.1v4.2h-19.4v-4.2h19.4Zm18.1 0v4.2h-18.1v-4.2h18.1Zm-54.4 0v4.2h-18.1v-4.2H149Zm-29.6 167.1v4.2h-18.1v-4.2h18.1Zm11.4-167.1v4.2h-16.9v-4.2h16.9Zm35.1 0v4.2H149v-4.2h16.9Zm-64.7 167.1v4.2H82.5c.9-1.8 2.9-2.9 4.2-4.2h14.5Z" class="st0"/><path d="M136.3 455.8v4.2h-16.9v-4.2h16.9Zm36.9 0v4.2h-16.3v-4.2h16.3Zm31.4-29.6v4.2h-13.9v-4.2h13.9Zm-127-108v4.2H64.3v-4.2h13.3Zm38.7 107.4c8-8.1 18.6-20.8 27.2-27.5s1.1-1.1 2.1-.9c-.9 3.3.2 6.3.3 9.3.2 6.5 0 13.1 0 19.6h-14.5c-4.9 0-10.4.5-15.1-.6Zm-33.8-24.7v25.3h7.3v4.2H78.3v-25.3l4.2-4.2Zm0-37.4v29.6l-4.2 4.2c-.1-11.3.2-22.5 0-33.8h4.2Z" class="st0"/><path d="M131.4 426.2v4.2h-20l4.8-4.8c4.7 1.1 10.2.6 15.1.6Zm-23.5 0-4.2 4.2H89.8v-4.2h18.1Zm38.1 0v4.2h-14.5v-4.2H146Z" class="st0"/></svg>