<svg xmlns="http://www.w3.org/2000/svg" viewBox="0 0 720 720"><path d="m143.1 110.3 416.7-.2c20.1 2.3 10.7 35.1 7.7 47.9-28.3 120.4-148.4 195.1-269.6 164.2-87.8-22.4-151.4-96-163.8-185.4-1.4-10.2-3.6-22.8 8.9-26.5Zm316.8 368.3c-1 1.1-4.5 2-6.2 2H249c-3.7.6-7-3.1-7.2-6.5s3.4-19.2 4.9-24.1c29.7-101.3 174.1-105.4 209.1-5.8 2.1 6.1 8.2 30 4 34.4Zm47 90.3 5.2-3.6c10.4-6 25.4-5.2 32.4 5.5 6.8-5.6 14.6-9.7 23.8-9.2 28.4 1.7 18 38.3 20 56.8 0 1.2-.9 2.4-2.1 2.6s-4.5.2-5.6 0-2-1.2-2.3-2.2v-34.5c-1.6-18.2-21.1-14.8-30.5-4.9-.3.6.4 3.9.4 4.9.4 11.7-.3 23.4 0 35.1-.3.9-1.1 1.7-2.1 1.9s-4.5.2-5.6 0-2.3-1.2-2.4-2.6c-.5-10.8.7-22.3 0-33-1.2-18.3-20.7-17.3-30-6l-.2 39.2c-.5 2.7-4.9 2.4-7.1 2.2s-1.9-.5-2.4-1.5l-.2-54.5c.3-2.5 5.3-2.6 6.8-1.8s1.6 4.3 1.9 5.5Zm-100.3-32.8c.2-1.5 1.1-2.5 2.6-2.7s7-.6 7.1 2.1v83.2c.2 2.7-4.7 2.9-6.4 2.1s-2.1-5.7-2.4-5.7c-8.4 7.4-19.8 9.9-29.8 4.1-14.9-8.5-18.4-30.4-10.2-44.7s25.4-16.2 39.1-9.4v-29.2Zm-.4 39c-8-3.9-18.9-5.4-26.2.7s-8.7 28.2 2.2 35.2 17.1 2 22.5-4.6c.7-.8 1.6-1.8 1.5-2.9v-28.3Zm259.3-11.5c.8.8.6 2 .1 2.9L627.8 653c-1.1 1.7-6 1.5-7.9 1.3s-2.6-1.1-2.3-2.8l11.9-30.6-26.8-55c-.3-1.6.3-2.4 1.8-2.6s7.1-.2 8.1.2.7.4 1 .7l21.6 44.5 20.6-44.8c.1-.3.4-.4.6-.5 1.2-.7 8.1-.8 9.1.1ZM440.1 594c.3 7.5 5.9 15 13 17.6 6.1 2.2 12.6 1 18.3-1.8s4-2.7 5.1-2.7 3.1 3.3 3.7 4.4c1.5 2.8.8 3-1.5 4.8-6.7 5-17.5 6.8-25.6 5.6-33.7-5.3-30.1-62.4 7.2-60.2s26.8 14.8 24.1 30-1.3 2.4-2 2.4h-42.3Zm34.6-7.3c-.2-6.9-5.4-14-12.2-15.6-10.4-2.3-21.4 4.6-22.1 15.6h34.4Zm-259.6-6.8c-1.1-11.7-11.5-9.7-20.1-7.8s-6.9 2.3-7.9 2.1-2.9-5.7-2.7-6.8 2.9-2.3 4-2.7c7.4-2.6 21.9-4.4 28.8-.6s7.3 11.2 7.6 17.5c.6 12.2-.5 24.9 0 37.1-.2 1.7-1.3 2.2-2.9 2.4-5.2.5-4.5-1.6-5.9-5.6-3.5 3-7.2 5.5-11.8 6.6-14.3 3.3-25.1-5.5-24.1-20.2 1.1-17.1 21.6-20.6 34.9-15.8-.1-2 .2-4.3 0-6.3Zm-14.8 12.5c-16.3 1.7-14.1 25.4 3.9 20.9s10.4-4.6 10.9-7.5.2-9 0-10.6-2-1.7-3.2-2.1c-3.5-.9-8-1.1-11.6-.8Zm140.3 23.1c-.4-.3-1.9 1.6-2.4 1.9-12.8 10.3-32.5 5.8-33.7-12.1s20-24.5 34.9-19.1c0-.6.3-1.2.3-1.8 0-3.1-.5-8.7-2.6-11.1-3.2-3.8-12.1-2.3-16.5-1.4s-8.3 2.6-9.3 2.3-2.7-5-2.7-6c-.1-2.5 4.4-3.6 6.4-4.2 7.6-2.2 21.8-4 28.4 1.3s5.4 9.8 5.7 14.7c.8 12.8-.6 26.5 0 39.4-.4 2.1-4.6 2.2-6.2 1.7s-1.8-4-2.5-5.5Zm-1.2-21.2c-9.3-4-27-3.5-25.6 10.7s20.1 9.8 25.6 1.3v-12Zm-215.9-25.4c.3 0 .5 0 .8-.1 1.2-.6 3-2.2 4.5-3.1 16.8-9.3 36-3.5 37.4 17.3s-.6 24.4 0 36.3c-.1 1.1-1.3 2-2.4 2.1s-4.2.1-5.3 0c-1.6-.3-2.3-1.8-2.4-3.2-1-10.5.8-22.6 0-33.2-1.4-18.9-21.7-14.8-31.4-5.1l-.2 39.2c-.3 1.2-1.1 2-2.3 2.1-2.4.4-7.7.6-7.4-2.9v-52.8c-.2-2.9 6-3 7.1-1.8s1.3 4.1 1.5 5.3Zm-70.2-5.6c2.2-.4 7.4-.7 7.8 2.4.7 11.1-.7 23 0 34 1.3 18.1 21 15.7 30 5.1l.2-39.7c.4-1.3 1.3-1.7 2.6-1.9 2.6-.3 7-.6 7.1 2.9V619c-.5 2.3-5.1 2.4-6.6 1.7s-1.8-5.9-3-5.6c-7.8 8.2-24.4 10.1-33.3 2.8s-7.2-12.9-7.7-20.2c1.3-10-.7-21.3.3-31.3s.7-2.8 2.4-3.1Zm212.1-1.3c7-.6 14.1.9 19.6 5.4s5.4 4.6 4.7 7.5-4.5 4.8-5.7 4.7-3.1-3-4.2-3.9c-9.7-8.1-24.4-3-28.8 8.3-7.7 19.5 13.4 38.8 30.1 24.2 3.1-2.7 4.2-6.2 8.4-2s.5 5.7-1.8 8.2c-12.2 13.2-34 9.5-43.7-4.7-12.7-18.5-1.2-45.7 21.4-47.7Z" style="fill:#fff"/></svg>