<svg xmlns="http://www.w3.org/2000/svg" id="Layer_1" version="1.1" viewBox="0 0 458 458"><defs><style>.st1{fill-rule:evenodd}</style></defs><path d="M387.8 229c0 72.9-7.4 132.6-83.7 150.8-22.4 5.3-48.8 8-75.1 8-123.8 0-158.8-35-158.8-158.8S105.2 70.2 229 70.2s158.8 35 158.8 158.8Z" style="fill-rule:evenodd;fill:#fff"/><path d="M156.7 188.8c.9-.2 58.9 0 62.9 0 4.1 0 7.2.3 10.7 1.8 5.5 2.5 9.9 6.9 12.1 13 1.4 3.9 1.2 7.2 1.2 11.5v75.4c0 8.6-.8 7.9 4.6 7.9h25.2c3.1 0 2.9-.5 2.9-3.4v-94.4c0-9.4-2.4-17.2-7.3-24.1-1.2-1.6-1.6-2.1-2.8-3.5-.8-1-1.7-1.7-2.4-2.4-2.7-3-8.4-6.4-12.3-8-8.2-3.4-13.5-3-22.2-3H128.5c-7.2 0-6.4-1-6.4 6.2v125.7c0 6.3-.6 7 2.7 7H153c2.9 0 2.3-1.4 2.3-3.9V194c0-2.5-.5-4.7 1.3-5.1Zm145.9 108.3c.2 1.8 2.3 1.4 4.1 1.4h27c2.4 0 2.1-1.2 2.1-3.2V166.4c0-7 .8-6.7-4.1-6.7h-27c-2.3 0-2.1 1.2-2.1 3.2v134.3Z" class="st1"/><path d="M182.5 297.1c.2 1.2 1.1 1.4 2.3 1.4h25.8c3.7 0 5.1.6 5-2.4v-22c0-1.1.2-57.7 0-58.9-.2-1.2-1-1.4-2.4-1.4-4.7 0-28.6-.1-29.5 0-1.2.2-1.3 1.1-1.3 2.4v22c0 1.3-.1 57.6 0 59Z" class="st1"/></svg>